<svg xmlns="http://www.w3.org/2000/svg" width="1200" height="1700" viewBox="0 0 1200 1700">
<rect width="1200" height="1700" fill="#fbfaf6"/>
<rect x="80" y="80" width="518.3713514527306" height="470.6666666666667" fill="rgb(216,216,210)" stroke="#1d1b18" stroke-width="6"/>
<circle cx="317.4" cy="315.1" r="113.3" fill="#fbfaf6" stroke="#1d1b18" stroke-width="4"/>
<line x1="92" y1="92" x2="152" y2="538.6666666666667" stroke="#1d1b18" stroke-width="2" opacity="0.35"/>
<line x1="110" y1="92" x2="170" y2="538.6666666666667" stroke="#1d1b18" stroke-width="2" opacity="0.35"/>
<line x1="128" y1="92" x2="188" y2="538.6666666666667" stroke="#1d1b18" stroke-width="2" opacity="0.35"/>
<line x1="146" y1="92" x2="206" y2="538.6666666666667" stroke="#1d1b18" stroke-width="2" opacity="0.35"/>
<line x1="164" y1="92" x2="224" y2="538.6666666666667" stroke="#1d1b18" stroke-width="2" opacity="0.35"/>
<line x1="182" y1="92" x2="242" y2="538.6666666666667" stroke="#1d1b18" stroke-width="2" opacity="0.35"/>
<rect x="622.3713514527306" y="80" width="497.62864854726945" height="470.6666666666667" fill="rgb(213,213,207)" stroke="#1d1b18" stroke-width="6"/>
<circle cx="808.9" cy="386.9" r="76.7" fill="#fbfaf6" stroke="#1d1b18" stroke-width="4"/>
<line x1="634.3713514527306" y1="92" x2="694.3713514527306" y2="538.6666666666667" stroke="#1d1b18" stroke-width="2" opacity="0.35"/>
<line x1="652.3713514527306" y1="92" x2="712.3713514527306" y2="538.6666666666667" stroke="#1d1b18" stroke-width="2" opacity="0.35"/>
<line x1="670.3713514527306" y1="92" x2="730.3713514527306" y2="538.6666666666667" stroke="#1d1b18" stroke-width="2" opacity="0.35"/>
<line x1="688.3713514527306" y1="92" x2="748.3713514527306" y2="538.6666666666667" stroke="#1d1b18" stroke-width="2" opacity="0.35"/>
<line x1="706.3713514527306" y1="92" x2="766.3713514527306" y2="538.6666666666667" stroke="#1d1b18" stroke-width="2" opacity="0.35"/>
<line x1="724.3713514527306" y1="92" x2="784.3713514527306" y2="538.6666666666667" stroke="#1d1b18" stroke-width="2" opacity="0.35"/>
<rect x="80" y="574.6666666666667" width="1040" height="470.6666666666667" fill="rgb(216,216,210)" stroke="#1d1b18" stroke-width="6"/>
<circle cx="395.4" cy="870.6" r="92.9" fill="#fbfaf6" stroke="#1d1b18" stroke-width="4"/>
<line x1="92" y1="586.6666666666667" x2="152" y2="1033.3333333333335" stroke="#1d1b18" stroke-width="2" opacity="0.35"/>
<line x1="110" y1="586.6666666666667" x2="170" y2="1033.3333333333335" stroke="#1d1b18" stroke-width="2" opacity="0.35"/>
<line x1="128" y1="586.6666666666667" x2="188" y2="1033.3333333333335" stroke="#1d1b18" stroke-width="2" opacity="0.35"/>
<line x1="146" y1="586.6666666666667" x2="206" y2="1033.3333333333335" stroke="#1d1b18" stroke-width="2" opacity="0.35"/>
<line x1="164" y1="586.6666666666667" x2="224" y2="1033.3333333333335" stroke="#1d1b18" stroke-width="2" opacity="0.35"/>
<line x1="182" y1="586.6666666666667" x2="242" y2="1033.3333333333335" stroke="#1d1b18" stroke-width="2" opacity="0.35"/>
<rect x="80" y="1069.3333333333335" width="417.36029854007063" height="470.6666666666667" fill="rgb(200,200,194)" stroke="#1d1b18" stroke-width="6"/>
<circle cx="270.5" cy="1220.1" r="84.8" fill="#fbfaf6" stroke="#1d1b18" stroke-width="4"/>
<line x1="92" y1="1081.3333333333335" x2="152" y2="1528.0000000000002" stroke="#1d1b18" stroke-width="2" opacity="0.35"/>
<line x1="110" y1="1081.3333333333335" x2="170" y2="1528.0000000000002" stroke="#1d1b18" stroke-width="2" opacity="0.35"/>
<line x1="128" y1="1081.3333333333335" x2="188" y2="1528.0000000000002" stroke="#1d1b18" stroke-width="2" opacity="0.35"/>
<line x1="146" y1="1081.3333333333335" x2="206" y2="1528.0000000000002" stroke="#1d1b18" stroke-width="2" opacity="0.35"/>
<line x1="164" y1="1081.3333333333335" x2="224" y2="1528.0000000000002" stroke="#1d1b18" stroke-width="2" opacity="0.35"/>
<line x1="182" y1="1081.3333333333335" x2="242" y2="1528.0000000000002" stroke="#1d1b18" stroke-width="2" opacity="0.35"/>
<rect x="521.3602985400706" y="1069.3333333333335" width="598.6397014599295" height="470.6666666666667" fill="rgb(234,234,228)" stroke="#1d1b18" stroke-width="6"/>
<circle cx="868.9" cy="1321.3" r="103.9" fill="#fbfaf6" stroke="#1d1b18" stroke-width="4"/>
<line x1="533.3602985400706" y1="1081.3333333333335" x2="593.3602985400706" y2="1528.0000000000002" stroke="#1d1b18" stroke-width="2" opacity="0.35"/>
<line x1="551.3602985400706" y1="1081.3333333333335" x2="611.3602985400706" y2="1528.0000000000002" stroke="#1d1b18" stroke-width="2" opacity="0.35"/>
<line x1="569.3602985400706" y1="1081.3333333333335" x2="629.3602985400706" y2="1528.0000000000002" stroke="#1d1b18" stroke-width="2" opacity="0.35"/>
<line x1="587.3602985400706" y1="1081.3333333333335" x2="647.3602985400706" y2="1528.0000000000002" stroke="#1d1b18" stroke-width="2" opacity="0.35"/>
<line x1="605.3602985400706" y1="1081.3333333333335" x2="665.3602985400706" y2="1528.0000000000002" stroke="#1d1b18" stroke-width="2" opacity="0.35"/>
<line x1="623.3602985400706" y1="1081.3333333333335" x2="683.3602985400706" y2="1528.0000000000002" stroke="#1d1b18" stroke-width="2" opacity="0.35"/>
<text x="600" y="1652" font-family="sans-serif" font-size="28" fill="#1d1b18" text-anchor="middle">試し読み 光の階段 — 3 / 8</text>
</svg>
