<svg xmlns="http://www.w3.org/2000/svg" width="1240" height="1754" viewBox="0 0 1240 1754">
<rect width="1240" height="1754" fill="#efe6d2"/>
<circle cx="606.3" cy="1687.0" r="7.9" fill="#b9a988" opacity="0.4"/>
<circle cx="570.5" cy="686.3" r="4.3" fill="#b9a988" opacity="0.4"/>
<circle cx="612.5" cy="736.1" r="7.4" fill="#b9a988" opacity="0.4"/>
<circle cx="298.2" cy="1352.5" r="2.1" fill="#b9a988" opacity="0.4"/>
<circle cx="778.7" cy="826.6" r="5.1" fill="#b9a988" opacity="0.4"/>
<circle cx="250.2" cy="1300.0" r="7.5" fill="#b9a988" opacity="0.4"/>
<circle cx="851.2" cy="449.9" r="5.3" fill="#b9a988" opacity="0.4"/>
<circle cx="738.1" cy="1467.8" r="3.5" fill="#b9a988" opacity="0.4"/>
<circle cx="1237.0" cy="385.6" r="4.3" fill="#b9a988" opacity="0.4"/>
<circle cx="380.6" cy="371.4" r="3.7" fill="#b9a988" opacity="0.4"/>
<circle cx="41.6" cy="194.5" r="2.7" fill="#b9a988" opacity="0.4"/>
<circle cx="616.6" cy="1596.6" r="7.3" fill="#b9a988" opacity="0.4"/>
<circle cx="563.7" cy="796.7" r="2.7" fill="#b9a988" opacity="0.4"/>
<circle cx="303.1" cy="459.6" r="3.7" fill="#b9a988" opacity="0.4"/>
<circle cx="1209.0" cy="342.2" r="7.9" fill="#b9a988" opacity="0.4"/>
<circle cx="528.2" cy="710.1" r="4.3" fill="#b9a988" opacity="0.4"/>
<circle cx="689.3" cy="1276.4" r="2.9" fill="#b9a988" opacity="0.4"/>
<circle cx="1021.4" cy="1421.6" r="4.4" fill="#b9a988" opacity="0.4"/>
<circle cx="39.0" cy="731.9" r="4.3" fill="#b9a988" opacity="0.4"/>
<circle cx="960.7" cy="813.4" r="3.8" fill="#b9a988" opacity="0.4"/>
<circle cx="841.9" cy="1341.4" r="4.2" fill="#b9a988" opacity="0.4"/>
<circle cx="438.9" cy="1186.5" r="6.2" fill="#b9a988" opacity="0.4"/>
<circle cx="340.0" cy="938.1" r="2.3" fill="#b9a988" opacity="0.4"/>
<circle cx="799.0" cy="390.5" r="6.2" fill="#b9a988" opacity="0.4"/>
<circle cx="377.4" cy="592.2" r="2.1" fill="#b9a988" opacity="0.4"/>
<circle cx="1026.1" cy="337.9" r="3.5" fill="#b9a988" opacity="0.4"/>
<circle cx="976.3" cy="1330.1" r="6.4" fill="#b9a988" opacity="0.4"/>
<circle cx="174.4" cy="1302.8" r="5.8" fill="#b9a988" opacity="0.4"/>
<circle cx="147.2" cy="615.9" r="7.6" fill="#b9a988" opacity="0.4"/>
<circle cx="501.3" cy="1116.7" r="4.4" fill="#b9a988" opacity="0.4"/>
<rect x="1100" y="160" width="22" height="1137.8" fill="#4a453d" opacity="0.7"/>
<rect x="1044" y="160" width="22" height="921.3" fill="#4a453d" opacity="0.7"/>
<rect x="988" y="160" width="22" height="1381.2" fill="#4a453d" opacity="0.7"/>
<rect x="932" y="160" width="22" height="1270.0" fill="#4a453d" opacity="0.7"/>
<rect x="876" y="160" width="22" height="1196.0" fill="#4a453d" opacity="0.7"/>
<rect x="820" y="160" width="22" height="1020.8" fill="#4a453d" opacity="0.7"/>
<rect x="764" y="160" width="22" height="1136.3" fill="#4a453d" opacity="0.7"/>
<rect x="708" y="160" width="22" height="1128.1" fill="#4a453d" opacity="0.7"/>
<rect x="652" y="160" width="22" height="1008.6" fill="#4a453d" opacity="0.7"/>
<rect x="596" y="160" width="22" height="1114.5" fill="#4a453d" opacity="0.7"/>
<rect x="540" y="160" width="22" height="939.8" fill="#4a453d" opacity="0.7"/>
<rect x="484" y="160" width="22" height="1045.3" fill="#4a453d" opacity="0.7"/>
<rect x="428" y="160" width="22" height="1364.3" fill="#4a453d" opacity="0.7"/>
<rect x="372" y="160" width="22" height="1216.9" fill="#4a453d" opacity="0.7"/>
<rect x="316" y="160" width="22" height="1222.3" fill="#4a453d" opacity="0.7"/>
<rect x="260" y="160" width="22" height="1183.7" fill="#4a453d" opacity="0.7"/>
<rect x="204" y="160" width="22" height="1298.9" fill="#4a453d" opacity="0.7"/>
<rect x="148" y="160" width="22" height="1300.8" fill="#4a453d" opacity="0.7"/>
<text x="620" y="1706" font-family="sans-serif" font-size="28" fill="#4a453d" text-anchor="middle">走査の練習帳 — 3 / 4</text>
</svg>
